{"accessors" : [{"bufferView" : 0, "byteOffset" : 0, "componentType" : 5123, "count" : 40320, "type" : "SCALAR", "max" : [28547], "min" : [0]}, {"bufferView" : 1, "byteOffset" : 0, "componentType" : 5126, "count" : 28548, "type" : "VEC3", "max" : [1.9204579591751099, 2.768115997314453, 1.9204570055007935], "min" : [-1.9297280311584473, -2.5544700622558594, -1.9204579591751099], "name" : "POSITION"}], "asset" : {"generator" : "Aspose.3D 23.2", "version" : "2.0"}, "buffers" : [{"uri" : "data:application/octet-stream;base64,", "byteLength" : 564488}], "bufferViews" : [{"buffer" : 0, "byteOffset" : 0, "byteLength" : 80640, "target" : 34963}, {"buffer" : 0, "byteOffset" : 80644, "byteLength" : 483840, "byteStride" : 12, "target" : 34962}], "meshes" : [{"primitives" : [{"attributes" : {"POSITION" : 1}, "indices" : 0, "mode" : 4}], "name" : ""}], "nodes" : [{"mesh" : 0, "name" : "Circle"}], "scene" : 0, "scenes" : [{"nodes" : [0]}]}